<svg width="28" height="28" viewBox="0 0 28 28" fill="none" xmlns="http://www.w3.org/2000/svg">
<path d="M26.25 17.5C26.25 18.468 25.468 19.25 24.5 19.25C23.532 19.25 22.75 18.468 22.75 17.5V5.25C22.75 4.28367 23.532 3.5 24.5 3.5C25.468 3.5 26.25 4.28367 26.25 5.25V17.5ZM15.75 17.5C15.75 18.468 14.968 19.25 14 19.25C13.032 19.25 12.25 18.468 12.25 17.5V8.75C12.25 7.78203 13.032 7 14 7C14.968 7 15.75 7.78203 15.75 8.75V17.5ZM10.5 17.5C10.5 18.468 9.71797 19.25 8.75 19.25C7.78203 19.25 7 18.468 7 17.5V14C7 13.032 7.78203 12.25 8.75 12.25C9.71797 12.25 10.5 13.032 10.5 14V17.5ZM19.25 10.5C20.218 10.5 21 11.282 21 12.25V17.5C21 18.468 20.218 19.25 19.25 19.25C18.282 19.25 17.5 18.468 17.5 17.5V12.25C17.5 11.282 18.282 10.5 19.25 10.5Z" fill="#212121"/>
<path opacity="0.4" d="M1.75 1.75C2.71633 1.75 3.5 2.53367 3.5 3.5V21.875C3.5 22.3563 3.89156 22.75 4.375 22.75H26.25C27.218 22.75 28 23.532 28 24.5C28 25.468 27.218 26.25 26.25 26.25H4.375C1.95891 26.25 0 24.2922 0 21.875V3.5C0 2.53367 0.783672 1.75 1.75 1.75Z" fill="#212121"/>
</svg>
