<svg width="22" height="28" viewBox="0 0 22 28" fill="none" xmlns="http://www.w3.org/2000/svg">
<path d="M14.5 0V7H21.5L14.5 0ZM15.375 17.0625H12.3125V13.9508C12.2633 13.2727 11.7273 12.6875 11 12.6875C10.2727 12.6875 9.6875 13.2727 9.6875 13.9508V17.0625H6.57578C5.89984 17.0625 5.3125 17.6477 5.3125 18.375C5.3125 19.1002 5.8993 19.6383 6.57578 19.6383H9.6875V22.7008C9.6875 23.4773 10.2727 24.0625 11 24.0625C11.7252 24.0625 12.2633 23.4752 12.2633 22.7992V19.6383H15.375C16.1002 19.6383 16.6875 19.0509 16.6875 18.375C16.6875 17.6991 16.1023 17.0625 15.375 17.0625Z" fill="#212121"/>
<path opacity="0.4" d="M14.5 7V0H3.125C1.67523 0 0.5 1.17523 0.5 2.625V25.375C0.5 26.8242 1.67523 28 3.125 28H18.875C20.3248 28 21.5 26.8248 21.5 25.375V7H14.5ZM15.375 19.6383H12.3125V22.7008C12.2633 23.4773 11.7273 24.0625 11 24.0625C10.2743 24.0625 9.6875 23.4752 9.6875 22.7992V19.6383H6.57578C5.8993 19.6383 5.3125 19.1023 5.3125 18.375C5.3125 17.6498 5.89984 17.1117 6.57578 17.1117H9.6875V13.9508C9.6875 13.2727 10.2727 12.6875 11 12.6875C11.7273 12.6875 12.2633 13.2748 12.2633 13.9508V17.0625H15.375C16.1002 17.0625 16.6875 17.6498 16.6875 18.3258C16.6875 19.0017 16.1023 19.6383 15.375 19.6383Z" fill="#212121"/>
</svg>
