<svg width="220" height="32" viewBox="0 0 220 32" fill="none" xmlns="http://www.w3.org/2000/svg">
<g clip-path="url(#clip0_1793_1691)">
<path d="M141.437 31.6055H148.597V30.0936H143.134V26.7174H147.792V25.1761H143.134V21.888H148.597V20.3541H141.437V31.6055ZM135.301 21.7926C135.848 21.7832 136.38 21.9739 136.797 22.3291C137.214 22.6843 137.488 23.1797 137.568 23.7229H139.294C139.193 22.7447 138.723 21.8422 137.981 21.1997C137.239 20.5573 136.28 20.2233 135.301 20.266C134.759 20.2603 134.22 20.3632 133.718 20.5686C133.216 20.774 132.759 21.0779 132.375 21.4624C131.278 22.5706 131.293 23.8183 131.293 25.9835C131.293 28.1486 131.293 29.3963 132.375 30.4972C132.758 30.8844 133.214 31.1905 133.716 31.3972C134.219 31.604 134.758 31.7073 135.301 31.7009C136.279 31.7383 137.234 31.4025 137.975 30.761C138.716 30.1196 139.188 29.2202 139.294 28.244H137.583C137.499 28.7877 137.222 29.2826 136.802 29.6363C136.383 29.9901 135.849 30.1787 135.301 30.1669C134.994 30.1742 134.689 30.118 134.404 30.0018C134.12 29.8857 133.863 29.712 133.648 29.4917C133.092 28.8899 132.968 28.244 132.968 25.9835C132.968 23.7229 133.092 23.0477 133.648 22.4752C133.862 22.2536 134.119 22.0786 134.404 21.9611C134.688 21.8437 134.993 21.7863 135.301 21.7926ZM115.05 20.3247L110.939 31.5761H112.753L113.521 29.3596H117.946L118.677 31.6202H120.491L116.381 20.3688L115.05 20.3247ZM114.026 27.8917L115.774 22.9009L117.47 27.8917H114.026ZM125.428 21.7926C125.975 21.7832 126.506 21.9739 126.924 22.3291C127.341 22.6843 127.615 23.1797 127.695 23.7229H129.45C129.347 22.744 128.875 21.8415 128.132 21.1992C127.389 20.5569 126.429 20.2232 125.449 20.266C124.907 20.2607 124.369 20.3638 123.867 20.5692C123.365 20.7746 122.908 21.0782 122.524 21.4624C121.405 22.5706 121.405 23.8183 121.405 25.9835C121.405 28.1486 121.405 29.3963 122.487 30.4972C122.87 30.8837 123.326 31.1893 123.829 31.3961C124.331 31.6028 124.87 31.7065 125.413 31.7009C126.398 31.7498 127.365 31.4191 128.115 30.7766C128.866 30.134 129.343 29.2281 129.45 28.244H127.731C127.655 28.6632 127.467 29.0537 127.186 29.3734C126.906 29.6931 126.544 29.9298 126.139 30.0582C125.734 30.1866 125.302 30.2017 124.889 30.1018C124.476 30.002 124.099 29.7911 123.797 29.4917C123.248 28.8899 123.116 28.244 123.116 25.9835C123.116 23.7229 123.248 23.0477 123.797 22.4752C124.009 22.257 124.262 22.084 124.543 21.9667C124.823 21.8494 125.124 21.7902 125.428 21.7926ZM201.942 21.888H205.021V31.6055H206.725V21.888H209.812V20.3541H201.942V21.888ZM190.884 20.3541H189.18V31.6055H196.282V30.0936H190.884V20.3541ZM198.264 31.6055H199.96V20.3541H198.264V31.6055ZM217.659 20.3541L215.312 25.3009L212.964 20.3541H211.106L214.463 26.9596V31.5908H216.16V26.9743L219.517 20.3688L217.659 20.3541ZM219.517 30.4238C219.517 30.2183 219.414 30.1009 219.115 30.1009H218.617V31.2605H218.764V30.7468H219.012L219.334 31.2605H219.502L219.158 30.7468C219.356 30.7321 219.517 30.644 219.517 30.4238ZM218.968 30.6147H218.764V30.2403H219.078C219.217 30.2403 219.356 30.2403 219.356 30.4238C219.356 30.6073 219.129 30.6147 218.968 30.6147ZM218.968 29.6825C218.768 29.6811 218.572 29.7394 218.405 29.8502C218.238 29.9609 218.107 30.119 218.03 30.3044C217.953 30.4898 217.932 30.694 217.971 30.8912C218.01 31.0883 218.106 31.2695 218.247 31.4116C218.389 31.5536 218.569 31.6503 218.766 31.6891C218.962 31.7279 219.166 31.7073 219.351 31.6297C219.535 31.5521 219.693 31.4212 219.803 31.2535C219.914 31.0858 219.972 30.889 219.97 30.6881C219.97 30.4264 219.869 30.175 219.687 29.9872C219.506 29.7995 219.258 29.6902 218.998 29.6825H218.968ZM218.968 31.5394C218.8 31.5409 218.635 31.4922 218.495 31.3995C218.355 31.3069 218.245 31.1744 218.179 31.019C218.114 30.8635 218.096 30.6921 218.128 30.5265C218.16 30.3609 218.24 30.2085 218.359 30.0887C218.477 29.9689 218.628 29.8871 218.793 29.8536C218.958 29.8202 219.129 29.8366 219.284 29.9008C219.439 29.965 219.572 30.0741 219.666 30.2143C219.759 30.3545 219.809 30.5194 219.809 30.6881C219.817 30.7999 219.802 30.9122 219.765 31.0179C219.728 31.1236 219.67 31.2205 219.593 31.3025C219.517 31.3844 219.425 31.4498 219.322 31.4943C219.22 31.5389 219.109 31.5617 218.998 31.5614L218.968 31.5394ZM169.872 31.6055H171.576V20.3541H169.872V31.6055ZM155.245 25.2569L153.972 25.066C153.511 25.0111 153.074 24.8309 152.707 24.5449C152.565 24.4127 152.454 24.2509 152.38 24.0709C152.307 23.8909 152.274 23.697 152.283 23.5027C152.283 22.5046 153.014 21.7486 154.331 21.7486C154.775 21.7209 155.22 21.7833 155.64 21.9321C156.06 22.0809 156.445 22.313 156.774 22.6147L157.856 21.5431C157.394 21.1021 156.846 20.7612 156.248 20.5415C155.649 20.3219 155.011 20.2281 154.375 20.266C152.049 20.266 150.63 21.6018 150.63 23.5614C150.616 23.9567 150.684 24.3505 150.832 24.7173C150.979 25.0841 151.202 25.4155 151.486 25.6899C152.074 26.207 152.807 26.5299 153.585 26.6147L154.909 26.8055C155.359 26.8178 155.793 26.9834 156.137 27.2752C156.287 27.4283 156.404 27.6112 156.48 27.8122C156.555 28.0131 156.588 28.2277 156.576 28.4422C156.576 29.5358 155.72 30.1669 154.258 30.1669C153.731 30.2038 153.203 30.1272 152.709 29.9424C152.214 29.7576 151.765 29.4688 151.391 29.0954L150.264 30.2183C150.783 30.732 151.405 31.1287 152.089 31.3818C152.772 31.6349 153.502 31.7387 154.228 31.6862C156.576 31.6862 158.258 30.4532 158.258 28.3835C158.283 27.9556 158.214 27.5276 158.056 27.1295C157.898 26.7314 157.655 26.3728 157.344 26.0789C156.758 25.5971 156.037 25.3099 155.282 25.2569H155.245ZM164.753 25.2569L163.473 25.066C163.014 25.0098 162.579 24.8297 162.215 24.5449C162.073 24.4127 161.961 24.2509 161.888 24.0709C161.815 23.8909 161.782 23.697 161.791 23.5027C161.791 22.5046 162.522 21.7486 163.839 21.7486C164.283 21.7209 164.728 21.7833 165.148 21.9321C165.567 22.0809 165.953 22.313 166.281 22.6147L167.364 21.5431C166.902 21.1021 166.354 20.7612 165.755 20.5415C165.156 20.3219 164.519 20.2281 163.882 20.266C161.557 20.266 160.138 21.6018 160.138 23.5614C160.119 23.954 160.181 24.3462 160.323 24.7128C160.464 25.0794 160.68 25.4123 160.957 25.6899C161.555 26.214 162.302 26.5373 163.093 26.6147L164.409 26.8055C164.86 26.8148 165.295 26.9808 165.638 27.2752C165.79 27.4268 165.909 27.6093 165.986 27.8105C166.063 28.0117 166.096 28.227 166.084 28.4422C166.084 29.5358 165.228 30.1669 163.765 30.1669C163.239 30.2038 162.711 30.1272 162.216 29.9424C161.722 29.7576 161.273 29.4688 160.898 29.0954L159.765 30.2183C160.284 30.733 160.907 31.1302 161.592 31.3834C162.277 31.6365 163.008 31.7398 163.736 31.6862C166.084 31.6862 167.766 30.4532 167.766 28.3835C167.79 27.9556 167.721 27.5276 167.563 27.1295C167.405 26.7314 167.162 26.3728 166.852 26.0789C166.256 25.59 165.521 25.3023 164.753 25.2569ZM184.697 31.6055H186.401V20.3541H184.697V31.6055ZM180.645 25.822C181.095 25.6121 181.474 25.2741 181.734 24.85C181.994 24.4259 182.124 23.9344 182.108 23.4367C182.108 21.5431 180.799 20.3541 178.722 20.3541H174.333V31.6055H178.868C180.85 31.6055 182.254 30.4972 182.254 28.4275C182.284 27.8802 182.145 27.3369 181.858 26.871C181.57 26.4051 181.147 26.0389 180.645 25.822ZM176.118 21.888H178.634C179.724 21.888 180.462 22.4605 180.462 23.5027C180.462 24.5449 179.731 25.1101 178.634 25.1101H176.118V21.888ZM178.766 30.0936H176.089V26.644H178.766C178.999 26.6287 179.234 26.6616 179.454 26.7408C179.674 26.8199 179.876 26.9437 180.047 27.1043C180.218 27.265 180.354 27.4591 180.448 27.6747C180.541 27.8903 180.589 28.1228 180.589 28.3578C180.589 28.5928 180.541 28.8253 180.448 29.0409C180.354 29.2565 180.218 29.4506 180.047 29.6112C179.876 29.7719 179.674 29.8956 179.454 29.9748C179.234 30.054 178.999 30.0869 178.766 30.0715V30.0936Z" fill="#0E3C60"/>
<path d="M219.349 12.964H212.643V0.890625H210.529V14.8723H219.349V12.964Z" fill="#0E3C60"/>
<path d="M166.838 5.03741L173.274 14.8723H175.205V0.890625H173.091V10.7035L166.655 0.890625H164.724V14.8723H166.838V5.03741Z" fill="#0E3C60"/>
<path d="M131.352 13.0817C130.698 13.1257 130.042 13.0294 129.428 12.7991C128.814 12.5687 128.255 12.2097 127.79 11.7459L126.379 13.1404C127.02 13.7857 127.792 14.2849 128.643 14.604C129.493 14.9231 130.402 15.0548 131.308 14.99C134.234 14.99 136.318 13.456 136.318 10.8872C136.348 10.355 136.262 9.82252 136.066 9.32693C135.871 8.83133 135.57 8.3845 135.184 8.0175C134.445 7.40802 133.535 7.04387 132.581 6.9753L131.001 6.74044C130.435 6.67343 129.898 6.44982 129.45 6.09457C129.272 5.93045 129.132 5.72904 129.04 5.50457C128.947 5.2801 128.905 5.03804 128.917 4.79549C128.917 3.56246 129.816 2.59365 131.462 2.59365C132.012 2.5608 132.562 2.6394 133.081 2.82476C133.6 3.01012 134.077 3.29845 134.482 3.67255L135.828 2.33677C135.255 1.78815 134.575 1.36366 133.832 1.08967C133.088 0.815692 132.296 0.698068 131.506 0.74411C128.58 0.74411 126.847 2.4175 126.847 4.84686C126.819 5.33952 126.896 5.83242 127.073 6.29296C127.249 6.7535 127.521 7.17119 127.871 7.51842C128.617 8.15208 129.538 8.54363 130.511 8.64136L132.149 8.87622C132.712 8.8816 133.255 9.08999 133.678 9.46338C133.869 9.6537 134.018 9.88349 134.113 10.1369C134.207 10.3903 134.246 10.6613 134.226 10.9313C134.226 12.2964 133.173 13.0817 131.352 13.0817Z" fill="#0E3C60"/>
<path d="M148.606 10.8867C148.636 10.3545 148.55 9.82201 148.354 9.32642C148.158 8.83083 147.857 8.38399 147.472 8.017C146.734 7.40891 145.828 7.04485 144.876 6.97479L143.289 6.73993C142.717 6.67557 142.175 6.45182 141.723 6.09406C141.546 5.92957 141.407 5.72792 141.316 5.5034C141.225 5.27889 141.184 5.03702 141.197 4.79498C141.197 3.56195 142.096 2.59314 143.735 2.59314C144.287 2.55829 144.841 2.6359 145.362 2.82131C145.884 3.00673 146.363 3.2961 146.77 3.67204L148.123 2.33626C147.549 1.78872 146.869 1.36494 146.126 1.09102C145.383 0.817111 144.591 0.698874 143.801 0.743601C140.875 0.743601 139.142 2.417 139.142 4.84635C139.113 5.33852 139.189 5.83122 139.364 6.29181C139.539 6.75239 139.81 7.17032 140.158 7.51791C140.905 8.15158 141.826 8.54312 142.799 8.64085L144.444 8.87571C145.005 8.88284 145.544 9.09112 145.965 9.46287C146.157 9.65319 146.305 9.88298 146.4 10.1364C146.495 10.3898 146.534 10.6608 146.514 10.9308C146.514 12.2812 145.461 13.0665 143.64 13.0665C142.987 13.112 142.331 13.0177 141.717 12.79C141.103 12.5622 140.545 12.2062 140.078 11.7454L138.674 13.1326C139.315 13.7779 140.087 14.277 140.938 14.5962C141.788 14.9153 142.697 15.0469 143.603 14.9821C146.514 14.9895 148.606 13.4555 148.606 10.8867Z" fill="#0E3C60"/>
<path d="M118.319 13.1497C117.696 13.16 117.077 13.043 116.5 12.8058C115.924 12.5686 115.401 12.2161 114.965 11.7698C114.528 11.3235 114.187 10.7928 113.961 10.2098C113.736 9.62691 113.631 9.00401 113.653 8.37905V8.21024H124.448C124.52 7.19948 124.393 6.18426 124.073 5.22312C123.753 4.26198 123.246 3.37395 122.583 2.61024C122.003 2.00624 121.304 1.53037 120.531 1.21313C119.758 0.895896 118.927 0.744293 118.092 0.76804C113.601 0.76804 111.598 4.43776 111.598 8.05611C111.598 12.1368 114.289 14.9846 118.18 14.9846C121.895 14.9846 123.467 12.8414 124.309 10.8011H122.275C121.918 11.5387 121.352 12.1546 120.649 12.5722C119.945 12.9897 119.135 13.1906 118.319 13.1497ZM113.77 6.35336C113.952 5.32128 114.483 4.38405 115.275 3.70052C116.067 3.017 117.07 2.62922 118.114 2.6029C119.14 2.63624 120.123 3.02983 120.89 3.71514C121.657 4.40044 122.16 5.33404 122.312 6.35336V6.54419H113.74L113.77 6.35336Z" fill="#0E3C60"/>
<path d="M152.203 14.8723H161.104V12.964H154.317V8.76585H160.102V6.87962H154.317V2.79888H161.104V0.890625H152.203V14.8723Z" fill="#0E3C60"/>
<path d="M193.071 0.890625H190.957V14.8649H193.071V0.890625Z" fill="#0E3C60"/>
<path d="M184.141 14.8723V2.79888H187.973V0.890625H178.187V2.79888H182.027V14.8723H184.141Z" fill="#0E3C60"/>
<path d="M202.805 0.890625H201.123L196.004 14.8723H198.249L199.207 12.0613H204.707L205.665 14.8723H207.91L202.805 0.890625ZM199.836 10.2778L202.03 4.07595L204.122 10.2778H199.836Z" fill="#0E3C60"/>
<path d="M97.7968 0.632812V32.0016" stroke="#0E3C60" stroke-miterlimit="10"/>
<path d="M31.9019 15.9633C31.9011 13.7957 32.5566 11.679 33.7818 9.89376C35.0069 8.10854 36.7437 6.7391 38.762 5.96697C37.2765 4.10752 35.3943 2.60617 33.2539 1.57349C31.1136 0.540811 28.7696 0.00311382 26.3948 0L15.9071 0C11.7464 0.0895255 7.78613 1.81108 4.8751 4.79572C1.96406 7.78035 0.333862 11.7906 0.333862 15.967C0.333862 20.1434 1.96406 24.1536 4.8751 27.1382C7.78613 30.1229 11.7464 31.8444 15.9071 31.9339H26.3948C28.7696 31.9308 31.1136 31.3931 33.2539 30.3605C35.3943 29.3278 37.2765 27.8264 38.762 25.967C36.7432 25.1935 35.0061 23.8228 33.781 22.0363C32.5559 20.2498 31.9006 18.1319 31.9019 15.9633Z" fill="#BDD9EA"/>
<path d="M68.6973 4.82628e-06H58.2096C55.863 -0.00182831 53.5452 0.518564 51.4231 1.52371C49.3011 2.52885 47.4275 3.99373 45.9374 5.81285C48.0622 6.522 49.9107 7.88446 51.2207 9.70703C52.5306 11.5296 53.2356 13.7198 53.2356 15.967C53.2356 18.2142 52.5306 20.4044 51.2207 22.2269C49.9107 24.0495 48.0622 25.412 45.9374 26.1211C47.4285 27.9391 49.3023 29.4031 51.4241 30.4081C53.546 31.4132 55.8633 31.9342 58.2096 31.9339H68.6973C72.858 31.8444 76.8182 30.1229 79.7292 27.1382C82.6403 24.1536 84.2705 20.1434 84.2705 15.967C84.2705 11.7906 82.6403 7.78036 79.7292 4.79572C76.8182 1.81108 72.858 0.0895303 68.6973 4.82628e-06Z" fill="#BDD9EA"/>
<path d="M18.0795 8.84545C18.3982 8.84111 18.7085 8.7423 18.9714 8.56145C19.2343 8.3806 19.4381 8.12579 19.5571 7.82905C19.676 7.53231 19.7049 7.20689 19.6401 6.89371C19.5753 6.58053 19.4196 6.29358 19.1928 6.06894C18.9659 5.84429 18.6778 5.69198 18.3649 5.63116C18.052 5.57034 17.7282 5.60372 17.4341 5.7271C17.14 5.85049 16.8889 6.05838 16.7122 6.32462C16.5356 6.59086 16.4413 6.90357 16.4413 7.22343C16.4422 7.43802 16.4854 7.65031 16.5684 7.84811C16.6513 8.04591 16.7724 8.22531 16.9246 8.37603C17.0768 8.52674 17.2572 8.6458 17.4554 8.72636C17.6536 8.80691 17.8657 8.84739 18.0795 8.84545Z" fill="#0E3C60"/>
<path d="M22.3502 19.6271C22.1888 19.6806 22.045 19.7772 21.9342 19.9065C21.8234 20.0358 21.7498 20.1929 21.7212 20.361C21.4827 21.0763 21.0787 21.7246 20.5422 22.2528C20.0057 22.781 19.352 23.174 18.6349 23.3996C18.0087 23.5964 17.3474 23.654 16.6968 23.5684C15.738 23.4062 14.845 22.9735 14.1224 22.3207L14.0785 22.2693C14.0066 22.2045 13.9383 22.1359 13.8737 22.0638L13.6982 21.8583L13.6397 21.7849C13.2457 21.2946 12.9524 20.7308 12.7767 20.1262C12.5717 19.434 12.5168 18.7057 12.6158 17.9904C12.7155 17.2376 12.9889 16.5185 13.4142 15.8903C13.8396 15.2622 14.4051 14.7423 15.0658 14.3721C15.2176 14.311 15.3508 14.2111 15.4522 14.0824C15.5536 13.9536 15.6196 13.8004 15.6436 13.6381C15.6721 13.509 15.6738 13.3754 15.6486 13.2457C15.6233 13.1159 15.5717 12.9928 15.4969 12.8839C15.4221 12.7751 15.3257 12.6829 15.2138 12.6132C15.1019 12.5434 14.9768 12.4975 14.8464 12.4785C14.6613 12.4511 14.4722 12.4819 14.3052 12.5666C13.325 13.0691 12.4805 13.8021 11.8438 14.7031C11.207 15.6041 10.7969 16.6464 10.6484 17.7409C10.522 18.7893 10.6319 19.8528 10.9702 20.8528C11.4656 22.5192 12.5958 23.9224 14.1157 24.7578C15.6355 25.5932 17.4223 25.7935 19.0883 25.3152C20.1275 24.9813 21.0701 24.3986 21.8347 23.6172C22.5992 22.8359 23.1627 21.8796 23.4765 20.8308C23.5313 20.6439 23.5313 20.4451 23.4765 20.2583C23.4084 20.0261 23.2523 19.8299 23.0417 19.7119C22.8312 19.5939 22.5829 19.5635 22.3502 19.6271Z" fill="#0E3C60"/>
<path d="M29.9858 20.9678C29.8893 20.8018 29.7319 20.6805 29.5473 20.6297C29.3628 20.5789 29.1657 20.6028 28.9984 20.6962L27.9453 21.2834L25.21 17.1439C25.1277 16.9934 25.0073 16.8673 24.8609 16.7784C24.7145 16.6894 24.5473 16.6408 24.3763 16.6375H19.2567V15.0155H22.8258C23.0814 14.9937 23.3197 14.8764 23.4933 14.6868C23.6669 14.4972 23.7632 14.2491 23.7632 13.9916C23.7632 13.7341 23.6669 13.486 23.4933 13.2964C23.3197 13.1068 23.0814 12.9895 22.8258 12.9678H19.2348V10.8393C19.2348 10.5318 19.1131 10.2368 18.8963 10.0193C18.6796 9.80186 18.3857 9.67969 18.0793 9.67969C17.7728 9.67969 17.4789 9.80186 17.2622 10.0193C17.0455 10.2368 16.9237 10.5318 16.9237 10.8393V17.6136C16.929 17.9042 17.0396 18.1829 17.2348 18.3977C17.4299 18.6124 17.6963 18.7486 17.9842 18.7806C18.0646 18.7806 18.1304 18.7806 18.2182 18.7806H24.1861L26.7824 22.7146C26.9089 22.8991 27.0991 23.0299 27.3163 23.0815C27.3699 23.0856 27.4237 23.0856 27.4772 23.0815C27.5746 23.0824 27.6714 23.0649 27.7624 23.0301H27.8136H27.8575L29.7225 21.9879C29.8076 21.9394 29.8822 21.8742 29.9418 21.7962C30.0014 21.7182 30.0447 21.6289 30.0693 21.5338C30.0938 21.4386 30.0991 21.3395 30.0848 21.2423C30.0704 21.145 30.0367 21.0517 29.9858 20.9678Z" fill="#0E3C60"/>
<path d="M46.8953 13.9427L38.4042 9.53906C38.4042 11.3666 38.609 12.5409 39.8669 13.2088L44.138 15.4106L46.8953 13.9427Z" fill="#0E3C60"/>
<path d="M47.9991 14.5156L45.2273 15.9835L39.8884 18.7725C38.6743 19.4331 38.4257 20.8716 38.4257 22.4422L46.1342 18.4129C47.8382 17.4808 48.0211 16.3431 48.0211 14.5303L47.9991 14.5156Z" fill="#0E3C60"/>
<path d="M72.7693 25.5509C72.7693 25.5996 72.7501 25.6462 72.7158 25.6807C72.6815 25.7151 72.635 25.7344 72.5865 25.7344H57.7765C57.728 25.7344 57.6815 25.7151 57.6472 25.6807C57.6129 25.6462 57.5936 25.5996 57.5936 25.5509V20.1344C57.5936 20.0857 57.6129 20.0391 57.6472 20.0046C57.6815 19.9702 57.728 19.9509 57.7765 19.9509H72.5865C72.635 19.9509 72.6815 19.9702 72.7158 20.0046C72.7501 20.0391 72.7693 20.0857 72.7693 20.1344V25.5509ZM63.152 22.5344H64.6147C64.6355 22.5344 64.6561 22.5302 64.6752 22.522C64.6943 22.5138 64.7116 22.5018 64.7259 22.4867C64.7403 22.4716 64.7515 22.4537 64.7587 22.4342C64.766 22.4146 64.7692 22.3938 64.7683 22.3729V20.905C64.7692 20.8842 64.766 20.8633 64.7587 20.8438C64.7515 20.8242 64.7403 20.8064 64.7259 20.7913C64.7116 20.7762 64.6943 20.7642 64.6752 20.756C64.6561 20.7478 64.6355 20.7435 64.6147 20.7436H63.152C63.1312 20.7435 63.1106 20.7478 63.0914 20.756C63.0723 20.7642 63.055 20.7762 63.0407 20.7913C63.0263 20.8064 63.0152 20.8242 63.0079 20.8438C63.0006 20.8633 62.9974 20.8842 62.9984 20.905V22.3729C62.9974 22.3938 63.0006 22.4146 63.0079 22.4342C63.0152 22.4537 63.0263 22.4716 63.0407 22.4867C63.055 22.5018 63.0723 22.5138 63.0914 22.522C63.1106 22.5302 63.1312 22.5344 63.152 22.5344ZM60.3874 23.0628H58.9247C58.884 23.0628 58.8449 23.0791 58.8161 23.108C58.7873 23.1369 58.7711 23.1761 58.7711 23.217V24.6849C58.7711 24.7257 58.7873 24.7649 58.8161 24.7938C58.8449 24.8227 58.884 24.839 58.9247 24.839H60.3874C60.4082 24.84 60.429 24.8367 60.4484 24.8294C60.4679 24.8221 60.4857 24.8109 60.5008 24.7965C60.5158 24.7821 60.5278 24.7648 60.536 24.7456C60.5441 24.7264 60.5483 24.7057 60.5483 24.6849V23.217C60.5483 23.1961 60.5441 23.1754 60.536 23.1562C60.5278 23.137 60.5158 23.1197 60.5008 23.1053C60.4857 23.0909 60.4679 23.0797 60.4484 23.0724C60.429 23.0651 60.4082 23.0618 60.3874 23.0628ZM60.3874 22.5344H61.8501C61.8928 22.5344 61.9337 22.5174 61.9639 22.4871C61.9941 22.4568 62.011 22.4157 62.011 22.3729V20.905C62.011 20.8622 61.9941 20.8211 61.9639 20.7909C61.9337 20.7606 61.8928 20.7436 61.8501 20.7436H60.3874C60.3666 20.7435 60.346 20.7478 60.3269 20.756C60.3078 20.7642 60.2905 20.7762 60.2761 20.7913C60.2618 20.8064 60.2506 20.8242 60.2434 20.8438C60.2361 20.8633 60.2328 20.8842 60.2338 20.905V22.3729C60.2328 22.3938 60.2361 22.4146 60.2434 22.4342C60.2506 22.4537 60.2618 22.4716 60.2761 22.4867C60.2905 22.5018 60.3078 22.5138 60.3269 22.522C60.346 22.5302 60.3666 22.5344 60.3874 22.5344ZM65.9238 22.5344H67.3865C67.4292 22.5344 67.4701 22.5174 67.5003 22.4871C67.5305 22.4568 67.5474 22.4157 67.5474 22.3729V20.905C67.5474 20.8622 67.5305 20.8211 67.5003 20.7909C67.4701 20.7606 67.4292 20.7436 67.3865 20.7436H65.9238C65.8811 20.7436 65.8402 20.7606 65.81 20.7909C65.7799 20.8211 65.7629 20.8622 65.7629 20.905V22.3729C65.7629 22.4157 65.7799 22.4568 65.81 22.4871C65.8402 22.5174 65.8811 22.5344 65.9238 22.5344ZM68.6883 22.5344H70.1511C70.1937 22.5344 70.2347 22.5174 70.2648 22.4871C70.295 22.4568 70.312 22.4157 70.312 22.3729V20.905C70.312 20.8622 70.295 20.8211 70.2648 20.7909C70.2347 20.7606 70.1937 20.7436 70.1511 20.7436H68.6883C68.6675 20.7435 68.647 20.7478 68.6278 20.756C68.6087 20.7642 68.5914 20.7762 68.5771 20.7913C68.5627 20.8064 68.5516 20.8242 68.5443 20.8438C68.537 20.8633 68.5338 20.8842 68.5348 20.905V22.3729C68.5338 22.3938 68.537 22.4146 68.5443 22.4342C68.5516 22.4537 68.5627 22.4716 68.5771 22.4867C68.5914 22.5018 68.6087 22.5138 68.6278 22.522C68.647 22.5302 68.6675 22.5344 68.6883 22.5344ZM68.6883 23.0628H67.2256C67.2048 23.0618 67.1841 23.0651 67.1646 23.0724C67.1451 23.0797 67.1273 23.0909 67.1123 23.1053C67.0972 23.1197 67.0852 23.137 67.0771 23.1562C67.0689 23.1754 67.0647 23.1961 67.0647 23.217V24.6849C67.0647 24.7057 67.0689 24.7264 67.0771 24.7456C67.0852 24.7648 67.0972 24.7821 67.1123 24.7965C67.1273 24.8109 67.1451 24.8221 67.1646 24.8294C67.1841 24.8367 67.2048 24.84 67.2256 24.839H68.6883C68.7291 24.839 68.7681 24.8227 68.7969 24.7938C68.8257 24.7649 68.8419 24.7257 68.8419 24.6849V23.217C68.8419 23.1761 68.8257 23.1369 68.7969 23.108C68.7681 23.0791 68.7291 23.0628 68.6883 23.0628ZM63.152 23.0628H61.6892C61.6485 23.0628 61.6094 23.0791 61.5806 23.108C61.5518 23.1369 61.5357 23.1761 61.5357 23.217V24.6849C61.5357 24.7257 61.5518 24.7649 61.5806 24.7938C61.6094 24.8227 61.6485 24.839 61.6892 24.839H63.152C63.1727 24.84 63.1935 24.8367 63.213 24.8294C63.2325 24.8221 63.2503 24.8109 63.2653 24.7965C63.2804 24.7821 63.2923 24.7648 63.3005 24.7456C63.3087 24.7264 63.3129 24.7057 63.3129 24.6849V23.217C63.3129 23.1961 63.3087 23.1754 63.3005 23.1562C63.2923 23.137 63.2804 23.1197 63.2653 23.1053C63.2503 23.0909 63.2325 23.0797 63.213 23.0724C63.1935 23.0651 63.1727 23.0618 63.152 23.0628ZM71.4529 23.0628H69.9902C69.9494 23.0628 69.9104 23.0791 69.8816 23.108C69.8528 23.1369 69.8366 23.1761 69.8366 23.217V24.6849C69.8366 24.7257 69.8528 24.7649 69.8816 24.7938C69.9104 24.8227 69.9494 24.839 69.9902 24.839H71.4529C71.4936 24.839 71.5327 24.8227 71.5615 24.7938C71.5903 24.7649 71.6065 24.7257 71.6065 24.6849V23.217C71.6065 23.1761 71.5903 23.1369 71.5615 23.108C71.5327 23.0791 71.4936 23.0628 71.4529 23.0628ZM65.9165 23.0628H64.4538C64.433 23.0618 64.4122 23.0651 64.3927 23.0724C64.3733 23.0797 64.3555 23.0909 64.3404 23.1053C64.3254 23.1197 64.3134 23.137 64.3052 23.1562C64.2971 23.1754 64.2929 23.1961 64.2929 23.217V24.6849C64.2929 24.7057 64.2971 24.7264 64.3052 24.7456C64.3134 24.7648 64.3254 24.7821 64.3404 24.7965C64.3555 24.8109 64.3733 24.8221 64.3927 24.8294C64.4122 24.8367 64.433 24.84 64.4538 24.839H65.9165C65.9373 24.84 65.958 24.8367 65.9775 24.8294C65.997 24.8221 66.0148 24.8109 66.0299 24.7965C66.0449 24.7821 66.0569 24.7648 66.065 24.7456C66.0732 24.7264 66.0774 24.7057 66.0774 24.6849V23.217C66.0774 23.1961 66.0732 23.1754 66.065 23.1562C66.0569 23.137 66.0449 23.1197 66.0299 23.1053C66.0148 23.0909 65.997 23.0797 65.9775 23.0724C65.958 23.0651 65.9373 23.0618 65.9165 23.0628ZM57.9739 19.0335C57.9719 19.0732 57.9852 19.1121 58.0111 19.1422C58.037 19.1723 58.0734 19.1912 58.1129 19.1949H72.272C72.2912 19.1931 72.3099 19.1875 72.327 19.1783C72.3441 19.1692 72.3591 19.1568 72.3714 19.1418C72.3836 19.1267 72.3928 19.1094 72.3983 19.0909C72.4039 19.0723 72.4057 19.0528 72.4036 19.0335V5.65366C72.4057 5.63436 72.4039 5.61486 72.3983 5.59627C72.3928 5.57768 72.3836 5.56038 72.3714 5.54537C72.3591 5.53035 72.3441 5.51792 72.327 5.50879C72.3099 5.49967 72.2912 5.49402 72.272 5.49219H58.1129C58.0734 5.49592 58.037 5.5148 58.0111 5.54489C57.9852 5.57498 57.9719 5.61395 57.9739 5.65366V19.0335ZM59.8974 16.6628V7.64999C59.8964 7.63359 59.8987 7.61717 59.904 7.60165C59.9094 7.58613 59.9177 7.57182 59.9286 7.55955C59.9395 7.54728 59.9526 7.53728 59.9674 7.53013C59.9821 7.52297 59.9981 7.51881 60.0144 7.51788H70.4509C70.4673 7.51881 70.4832 7.52297 70.498 7.53013C70.5127 7.53728 70.5259 7.54728 70.5368 7.55955C70.5476 7.57182 70.556 7.58613 70.5613 7.60165C70.5667 7.61717 70.5689 7.63359 70.5679 7.64999V16.6628C70.568 16.6947 70.5559 16.7254 70.5341 16.7486C70.5124 16.7718 70.4826 16.7857 70.4509 16.7876H60.0144C59.9827 16.7857 59.953 16.7718 59.9312 16.7486C59.9094 16.7254 59.8974 16.6947 59.8974 16.6628Z" fill="#0E3C60"/>
<path d="M81.5968 31.6594V30.1915H81.0702V29.8906H82.4744V30.1915H81.9551V31.6594H81.5968Z" fill="#0E3C60"/>
<path d="M82.703 31.659V29.8828H83.2369L83.5587 31.0938L83.8732 29.8828H84.4071V31.659H84.1072V30.2571L83.7562 31.659H83.3759L83.0248 30.2571V31.659H82.703Z" fill="#0E3C60"/>
</g>
<defs>
<clipPath id="clip0_1793_1691">
<rect width="220" height="32" fill="white"/>
</clipPath>
</defs>
</svg>
