<svg width="28" height="28" viewBox="0 0 28 28" fill="none" xmlns="http://www.w3.org/2000/svg">
<path d="M10.8106 15.05H9.4106V16.45C9.4106 17.0275 8.93897 17.5 8.36147 17.5C7.78397 17.5 7.3106 17.0275 7.3106 16.45V15.05L5.94997 15.0106C5.37247 15.0106 4.8606 14.5775 4.8606 14C4.8606 13.4225 5.33528 12.9496 5.91278 12.9496L7.3106 12.95V11.55C7.3106 10.9725 7.78397 10.5 8.36147 10.5C8.93897 10.5 9.4106 10.9725 9.4106 11.55V12.95H10.8106C11.3881 12.95 11.8615 13.4225 11.8615 14C11.8606 14.5775 11.4275 15.05 10.8106 15.05Z" fill="#9A4292"/>
<path opacity="0.4" d="M19.6 5.60156H8.4C3.76075 5.60156 0 9.32469 0 14.0016C0 18.6784 3.76075 22.4016 8.4 22.4016H19.6C24.2375 22.4016 28 18.6408 28 14.0016C28 9.36231 24.2375 5.60156 19.6 5.60156ZM10.8106 15.0516H9.41063V16.4516C9.41063 17.0291 8.939 17.5016 8.3615 17.5016C7.784 17.5016 7.31063 17.0291 7.31063 16.4516V15.0516L5.95 15.0122C5.3725 15.0122 4.86062 14.5791 4.86062 14.0016C4.86062 13.4241 5.33531 12.9511 5.91281 12.9511L7.31063 12.9516V11.5516C7.31063 10.9741 7.784 10.5016 8.3615 10.5016C8.939 10.5016 9.41063 10.9741 9.41063 11.5516V12.9516H10.8106C11.3881 12.9516 11.8615 13.4241 11.8615 14.0016C11.8606 14.5791 11.4275 15.0516 10.8106 15.0516ZM18.8606 17.8516C17.8929 17.8516 17.15 17.0697 17.15 16.1409C17.15 15.2121 17.9318 14.3909 18.8606 14.3909C19.7894 14.3909 20.5713 15.1732 20.5713 16.1409C20.5713 17.1087 19.8669 17.8516 18.8606 17.8516ZM21.6606 13.6516C20.6929 13.6516 19.95 12.8697 19.95 11.9409C19.95 11.0121 20.7318 10.1909 21.6606 10.1909C22.6284 10.1909 23.3713 10.9732 23.3713 11.9409C23.3713 12.9087 22.6669 13.6516 21.6606 13.6516Z" fill="#9A4292"/>
</svg>
