<svg width="28" height="28" viewBox="0 0 28 28" fill="none" xmlns="http://www.w3.org/2000/svg">
<path d="M26.3003 12.6737L24.8694 6.98009C24.5219 5.77813 23.3437 4 21.0146 4C20.3095 4 19.971 4.09394 19.0677 4.43055C18.6897 4.55357 18.4863 4.96198 18.6163 5.33639L18.842 6.01275C18.9427 6.31492 19.2271 6.50503 19.525 6.50503C19.6886 6.50503 19.745 6.47148 20.3488 6.27019C21.5278 5.88437 22.5267 6.54417 22.7696 7.50034L24.1066 12.8123C23.1641 12.2255 22.0586 11.873 20.8625 11.873C18.374 11.873 16.2493 13.3438 15.2833 15.4516H12.7181C11.753 13.3433 9.62604 11.873 7.13888 11.873C5.9427 11.873 4.8368 12.2253 3.8943 12.8123L5.23177 7.4981C5.47439 6.54171 6.47309 5.87654 7.65256 6.26795C8.25833 6.47148 8.27187 6.50503 8.475 6.50503C8.77404 6.50503 9.05638 6.31492 9.15795 6.01297L9.38364 5.33661C9.51342 4.96198 9.31029 4.55379 8.93225 4.43078C8.03263 4.09394 7.69409 4 6.98541 4C4.65489 4 3.43614 5.77813 3.13145 6.98009L1.69965 12.6737C1.09592 15.0669 1 15.9928 1 17.9163C1 21.2771 3.74806 24 7.13889 24C10.406 24 13.0115 21.4614 13.2417 18.3145H14.7538C14.9457 21.5017 17.5922 24 20.8611 24C24.2524 24 27 21.2767 27 17.9163C27 15.9928 26.9052 15.0669 26.3003 12.6737ZM7.13888 21.8931C4.94559 21.8931 3.16666 20.1297 3.16666 17.9566C3.16666 15.783 4.94559 14.0201 7.13888 14.0201C9.33218 14.0201 11.0705 15.783 11.0705 17.9566C11.1111 20.1306 9.33263 21.8931 7.13888 21.8931ZM20.8611 21.8931C18.6678 21.8931 16.8889 20.1297 16.8889 17.9566C16.8889 15.783 18.6678 14.0201 20.8611 14.0201C23.0544 14.0201 24.8333 15.783 24.8333 17.9566C24.8333 20.1306 23.0549 21.8931 20.8611 21.8931Z" fill="#9A4292"/>
<path opacity="0.4" d="M7.13824 21.8886C4.94494 21.8886 3.16602 20.1252 3.16602 17.9521C3.16602 15.7785 4.94494 14.0156 7.13824 14.0156C9.33154 14.0156 11.0698 15.7785 11.0698 17.9521C11.1105 20.1261 9.33199 21.8886 7.13824 21.8886ZM20.8605 21.8886C18.6672 21.8886 16.8882 20.1252 16.8882 17.9521C16.8882 15.7785 18.6672 14.0156 20.8605 14.0156C23.0538 14.0156 24.8327 15.7785 24.8327 17.9521C24.8327 20.1261 23.0542 21.8886 20.8605 21.8886Z" fill="#9A4292"/>
</svg>
