<svg width="28" height="28" viewBox="0 0 28 28" fill="none" xmlns="http://www.w3.org/2000/svg">
<path d="M21.4245 12.625C18.0652 12.625 15.3496 15.3909 15.3496 18.8116C15.3496 22.2322 18.0656 24.9981 21.4245 24.9981C24.7834 24.9981 27.4994 22.2322 27.4994 18.8116C27.4994 15.3909 24.7826 12.625 21.4245 12.625ZM23.4495 19.499H21.1609C20.9352 19.499 20.7495 19.3099 20.7495 19.0822V16.062C20.7495 15.6824 21.0518 15.3746 21.4245 15.3746C21.7974 15.3746 22.0995 15.6824 22.0995 16.062V18.1242H23.4495C23.8223 18.1242 24.1245 18.432 24.1245 18.7729C24.1245 19.1138 23.8207 19.499 23.4495 19.499Z" fill="#2D9DA6"/>
<path opacity="0.4" d="M9.94987 13.9983C12.9325 13.9983 15.3498 11.5362 15.3498 8.49917C15.3498 5.46217 12.9325 3 9.94987 3C6.96725 3 4.54994 5.46217 4.54994 8.49917C4.54994 11.5362 6.96725 13.9983 9.94987 13.9983ZM13.9998 18.8101C13.9998 17.9809 14.1357 17.1853 14.3778 16.4386C13.6581 16.198 12.8861 16.0605 12.0887 16.0605H7.81099C3.77413 16.0605 0.5 19.3987 0.5 23.5102C0.5 24.3308 1.15474 24.9967 1.9622 24.9967H17.1638C15.2528 23.6305 13.9998 21.3707 13.9998 18.8101Z" fill="#2D9DA6"/>
</svg>
