<svg width="28" height="28" viewBox="0 0 28 28" fill="none" xmlns="http://www.w3.org/2000/svg">
<path d="M20.0051 15.625H17.9999C17.6666 15.625 17.3333 15.95 17.3333 16.275V23.1051C17.3333 23.425 17.6666 23.75 17.9999 23.75H20.0051C20.3333 23.75 20.6666 23.425 20.6666 23.1051V16.275C20.6666 15.95 20.3333 15.625 20.0051 15.625ZM10.0051 18.875H7.99992C7.66554 18.875 7.33325 19.2 7.33325 19.525V23.1051C7.33325 23.425 7.66554 23.75 7.99731 23.75H10.0025C10.3333 23.75 10.6666 23.425 10.6666 23.1051V19.525C10.6666 19.2 10.3333 18.875 10.0051 18.875ZM15.0051 12.375H12.9999C12.6666 12.375 12.3333 12.7 12.3333 13.025V23.1051C12.3333 23.425 12.6666 23.75 12.9999 23.75H15.0051C15.3333 23.75 15.6666 23.425 15.6666 23.1051V13.025C15.6666 12.7 15.3333 12.375 15.0051 12.375ZM17.3333 1V7.5H23.9999L17.3333 1Z" fill="#2D9DA6"/>
<path opacity="0.4" d="M17.3333 7.5V1H6.5C5.11927 1 4 2.09129 4 3.4375V24.5625C4 25.9082 5.11927 27 6.5 27H21.5C22.8807 27 24 25.9087 24 24.5625V7.5H17.3333ZM10.6667 23.1051C10.6667 23.425 10.3333 23.75 10.0052 23.75H8C7.66563 23.75 7.33333 23.425 7.33333 23.1051V19.525C7.33333 19.2 7.66562 18.875 7.9974 18.875H10.0026C10.3333 18.875 10.6667 19.2 10.6667 19.525V23.1051ZM15.6667 23.1051C15.6667 23.425 15.3333 23.75 15.0052 23.75H13C12.6667 23.75 12.3333 23.425 12.3333 23.1051V13.025C12.3333 12.7 12.6667 12.375 13 12.375H15.0052C15.3333 12.375 15.6667 12.7 15.6667 13.025V23.1051ZM20.6667 23.1051C20.6667 23.425 20.3333 23.75 20.0052 23.75H18C17.6667 23.75 17.3333 23.425 17.3333 23.1051V16.275C17.3333 15.95 17.6667 15.625 18 15.625H20.0052C20.3333 15.625 20.6667 15.95 20.6667 16.275V23.1051Z" fill="#2D9DA6"/>
</svg>
