<svg width="12" height="12" viewBox="0 0 12 12" fill="none" xmlns="http://www.w3.org/2000/svg">
<path d="M7.52539 2.22266L8.75 1.75L9.20117 0.546875C9.22266 0.439453 9.33008 0.375 9.4375 0.375C9.52344 0.375 9.63086 0.439453 9.65234 0.546875L10.125 1.75L11.3281 2.22266C11.4355 2.24414 11.5 2.35156 11.5 2.4375C11.5 2.54492 11.4355 2.65234 11.3281 2.67383L10.125 3.125L9.65234 4.34961C9.63086 4.43555 9.52344 4.5 9.4375 4.5C9.33008 4.5 9.22266 4.43555 9.20117 4.34961L8.75 3.125L7.52539 2.67383C7.41797 2.65234 7.375 2.54492 7.375 2.4375C7.375 2.35156 7.41797 2.24414 7.52539 2.22266ZM6.02148 4.41406L8.4707 5.53125C8.59961 5.5957 8.68555 5.72461 8.68555 5.85352C8.68555 5.98242 8.59961 6.11133 8.4707 6.17578L6.02148 7.29297L4.9043 9.74219C4.83984 9.87109 4.71094 9.95703 4.58203 9.95703C4.45312 9.95703 4.32422 9.87109 4.28125 9.74219L3.14258 7.29297L0.693359 6.17578C0.564453 6.11133 0.5 5.98242 0.5 5.85352C0.5 5.72461 0.564453 5.5957 0.693359 5.53125L3.14258 4.41406L4.28125 1.96484C4.32422 1.83594 4.45312 1.75 4.58203 1.75C4.71094 1.75 4.83984 1.83594 4.9043 1.96484L6.02148 4.41406ZM9.20117 7.42188C9.22266 7.31445 9.33008 7.25 9.4375 7.25C9.52344 7.25 9.63086 7.31445 9.65234 7.42188L10.125 8.625L11.3281 9.09766C11.4355 9.11914 11.5 9.22656 11.5 9.3125C11.5 9.41992 11.4355 9.52734 11.3281 9.54883L10.125 10L9.65234 11.2246C9.63086 11.3105 9.52344 11.375 9.4375 11.375C9.33008 11.375 9.22266 11.3105 9.20117 11.2246L8.75 10L7.52539 9.54883C7.41797 9.52734 7.375 9.41992 7.375 9.3125C7.375 9.22656 7.41797 9.11914 7.52539 9.09766L8.75 8.625L9.20117 7.42188Z" fill="#6C4298"/>
</svg>
