<svg width="28" height="28" viewBox="0 0 28 28" fill="none" xmlns="http://www.w3.org/2000/svg">
<path d="M13.9952 16.7506C16.5069 16.7506 18.5059 14.7499 18.5059 12.2816C18.5059 9.81326 16.4697 7.8125 13.9952 7.8125C11.4835 7.8125 9.48461 9.81326 9.48461 12.2816C9.44523 14.7481 11.484 16.7506 13.9952 16.7506ZM16.1827 18.1257H11.8165C8.38211 18.1257 5.59961 20.6911 5.59961 23.8539C5.59961 24.4898 6.15523 25.0012 6.84211 25.0012H21.1571C21.844 25.0012 22.3996 24.4898 22.3996 23.8539C22.3996 20.6911 19.6171 18.1257 16.1827 18.1257Z" fill="#212121"/>
<path opacity="0.4" d="M5.6 9.87548C7.53288 9.87548 9.1 8.33623 9.1 6.43774C9.1 4.53925 7.53375 3 5.6 3C3.66712 3 2.1 4.53925 2.1 6.43774C2.1 8.33623 3.66712 9.87548 5.6 9.87548ZM22.4 9.87548C24.3329 9.87548 25.9 8.33623 25.9 6.43774C25.9 4.53925 24.3337 3 22.4 3C20.4671 3 18.9 4.53925 18.9 6.43774C18.9 8.33623 20.4662 9.87548 22.4 9.87548ZM24.1456 11.2506H21.4401C20.8801 11.2506 20.3516 11.3811 19.8713 11.6047C19.8975 11.8307 19.9412 12.0499 19.9412 12.2819C19.9412 13.7305 19.3821 15.0411 18.4905 16.0634H27.2274C27.6544 16.0634 28 15.7024 28 15.2598C28 13.0468 26.2763 11.2506 24.1456 11.2506ZM8.11562 11.5986C7.63875 11.3408 7.11375 11.2506 6.55812 11.2506H3.8535C1.7255 11.2506 0 13.0468 0 15.2598C0 15.7024 0.345056 16.0634 0.770875 16.0634H9.499C8.60738 15.0411 8.04825 13.7305 8.04825 12.2819C8.04562 12.0499 8.08937 11.8264 8.11562 11.5986Z" fill="#212121"/>
</svg>
